<?xml version="1.0" encoding="UTF-8"?><svg id="Layer_1" xmlns="http://www.w3.org/2000/svg" viewBox="0 0 573.37 65.31"><defs><style>.cls-1{fill:#fff;}</style></defs><path class="cls-1" d="m35.22,2.28h0c-.43-1.01-1.43-1.66-2.56-1.67l-4.35-.02c-1.12,0-2.13.64-2.56,1.63L.22,60.37c-.38.86-.26,1.86.32,2.61.55.72,1.49,1.11,2.5,1.08l5.76-.51c1.04-.09,1.94-.73,2.33-1.66l5.5-13.19h22.43s5.17,12.99,5.17,12.99c.38.97,1.29,1.62,2.36,1.71l10.34.83c.1.01.2.02.29.02.88,0,1.72-.41,2.24-1.09.57-.75.7-1.72.34-2.58L35.22,2.28Zm-.08,36.59h-14.41s7.37-17.67,7.37-17.67l7.03,17.67Z"/><path class="cls-1" d="m557.05,5.9h5.63c2.78,0,4.3,1.69,4.3,3.78,0,1.54-.76,2.72-1.92,3.36l2.32,5.57h-2.83l-1.77-4.97h-3.16v4.97h-2.56V5.9Zm5.56,5.57c.93,0,1.74-.58,1.74-1.71,0-1.02-.71-1.65-1.87-1.65h-2.87v3.36h3Z"/><path class="cls-1" d="m561.72,2.89c5.26,0,9.52,4.26,9.52,9.52s-4.26,9.52-9.52,9.52-9.52-4.26-9.52-9.52,4.26-9.52,9.52-9.52m0-2.12c-6.42,0-11.65,5.22-11.65,11.65s5.22,11.65,11.65,11.65,11.65-5.22,11.65-11.65-5.22-11.65-11.65-11.65h0Z"/><path class="cls-1" d="m276.95,25.24h-10.19c-1.45,0-2.62,1.13-2.62,2.52v8.57c0,1.39,1.18,2.52,2.62,2.52h10.19c1.45,0,2.62-1.13,2.62-2.52v-8.57c0-1.39-1.18-2.52-2.62-2.52Z"/><path class="cls-1" d="m197.51,38.65c0,14.73,12.41,26.66,27.75,26.66s28.04-11.94,28.04-26.66V3.28c0-1.39-1.17-2.52-2.62-2.52h-5.22c-1.45,0-2.62,1.13-2.62,2.52v36.23s0,.04,0,.04c0,8.18-6.93,14.81-15.45,14.81s-15.13-6.63-15.13-14.81V3.32c0-1.42-1.15-2.56-2.56-2.56h-9.62c-1.42,0-2.56,1.15-2.56,2.56v35.33Z"/><path class="cls-1" d="m473.13.77h-22.69s-9.5,0-9.5,0c-1.45,0-2.63,1.13-2.63,2.52v57.85c0,.68.27,1.31.77,1.78.5.48,1.16.74,1.86.74h32.18c1.45,0,2.63-1.14,2.63-2.53v-5.13h0c0-1.36-1.22-2.45-2.63-2.45s-3.41.96-9.48.96h-10.58v-19.69h18.33c1.45,0,2.63-1.13,2.63-2.52v-4.54c0-1.39-1.18-2.52-2.63-2.52h-18.33v-15.32h10.58c6.08,0,8.08.96,9.48.96s2.63-1.1,2.63-2.45h0V3.29c0-1.39-1.18-2.52-2.63-2.52Z"/><path class="cls-1" d="m185.53,4.69h0c-.49-.22-12.23-5.35-25.37-4.62-19.2,1.13-31.39,13.54-31.82,32.39-.39,17.02,9.52,29.06,26.5,32.19,2.37.44,4.8.66,7.23.66,12.85,0,22.2-6.12,22.59-6.38.82-.55,1.25-1.48,1.11-2.43l-.97-6.52c-.14-.93-.8-1.7-1.72-2.02-.92-.31-1.94-.11-2.67.53-.37.33-9.1,7.95-18.5,7.56-10.1-.25-17.65-9.17-18.36-21.69-.4-7.02.51-23.56,17.5-25.56,12.71-1.48,17.65,7.33,17.85,7.71.49.89,1.5,1.43,2.5,1.34,1.04-.07,1.94-.71,2.29-1.65l3.18-8.38c.47-1.24-.11-2.59-1.35-3.15Z"/><path class="cls-1" d="m417.37.76h-9.49c-1.45,0-2.63,1.13-2.63,2.52v21.96h-26.47V3.28c0-1.39-1.18-2.52-2.63-2.52h-9.49c-1.45,0-2.63,1.13-2.63,2.52v57.86c0,1.39,1.18,2.52,2.63,2.52h9.49c1.45,0,2.63-1.13,2.63-2.52v-26.32h26.47v26.32c0,1.39,1.18,2.52,2.63,2.52h9.49c1.45,0,2.63-1.13,2.63-2.52V3.28c0-1.39-1.18-2.52-2.63-2.52Z"/><path class="cls-1" d="m347.27,4.69h0c-.49-.22-12.18-5.35-25.37-4.62-19.2,1.13-31.39,13.54-31.82,32.39-.39,17.02,9.52,29.06,26.5,32.19,2.37.44,4.8.66,7.23.66,12.85,0,22.2-6.12,22.59-6.38.83-.55,1.25-1.48,1.11-2.43l-.97-6.52c-.14-.93-.8-1.7-1.72-2.02-.92-.32-1.94-.11-2.67.53-.37.32-9.12,7.96-18.5,7.56-10.1-.25-17.65-9.17-18.36-21.69-.4-7.02.5-23.56,17.5-25.56,12.7-1.48,17.65,7.33,17.85,7.71.5.9,1.49,1.43,2.5,1.34,1.04-.07,1.94-.71,2.29-1.65l3.19-8.38c.47-1.24-.11-2.59-1.36-3.15Z"/><path class="cls-1" d="m514.8,28.94l24.95-24.05c.67-.65.87-1.62.51-2.47-.37-.85-1.22-1.4-2.18-1.4l-7.78.67c-.65.07-1.24.24-1.68.68l-21.89,21.42V3.02c0-1.25-1.06-2.27-2.36-2.27h-10c-1.3,0-2.36,1.02-2.36,2.27v58.37c0,1.25,1.06,2.27,2.36,2.27h10c1.3,0,2.36-1.02,2.36-2.27v-21.03l16.8,20.96c.39.48.99.77,1.62.77l13.59,1.05c.79,0,1.5-.43,1.85-1.11.34-.68.25-1.49-.24-2.08l-25.54-31.01Z"/><path class="cls-1" d="m120.54,4.69h0c-.49-.22-12.19-5.35-25.37-4.62-19.2,1.13-31.39,13.54-31.82,32.39-.39,17.02,9.52,29.06,26.5,32.19,2.37.44,4.8.66,7.23.66,12.85,0,22.2-6.12,22.59-6.38.82-.55,1.25-1.48,1.11-2.43l-.97-6.52c-.14-.93-.8-1.7-1.72-2.02-.92-.32-1.94-.11-2.67.53-.92.81-9.19,7.93-18.5,7.56-10.1-.25-17.65-9.17-18.36-21.69-.4-7.02.5-23.56,17.5-25.56,12.67-1.47,17.65,7.33,17.85,7.71.5.9,1.5,1.44,2.5,1.34,1.04-.07,1.93-.71,2.29-1.65l3.19-8.38c.47-1.24-.11-2.59-1.36-3.15Z"/></svg>
