<svg width="360" height="249" viewBox="0 0 360 249" fill="none" xmlns="http://www.w3.org/2000/svg">
<mask id="mask0_1_4" style="mask-type:luminance" maskUnits="userSpaceOnUse" x="-3" y="-2" width="364" height="179">
<path d="M360.69 176.9H-2.13V-1.38H360.75L360.69 176.9Z" fill="white"/>
</mask>
<g mask="url(#mask0_1_4)">
<path d="M360.35 162.77L360.75 -1.38H-2.20999V162.77C44.45 152.31 108.24 145.86 178.6 145.86C248.96 145.86 312.75 152.31 359.41 162.77" fill="url(#paint0_linear_1_4)"/>
</g>
<path d="M78.95 224.78C105.432 224.78 126.9 219.022 126.9 211.92C126.9 204.818 105.432 199.06 78.95 199.06C52.4679 199.06 31 204.818 31 211.92C31 219.022 52.4679 224.78 78.95 224.78Z" fill="url(#paint1_radial_1_4)"/>
<path d="M178.81 223.72C205.292 223.72 226.76 217.962 226.76 210.86C226.76 203.758 205.292 198 178.81 198C152.328 198 130.86 203.758 130.86 210.86C130.86 217.962 152.328 223.72 178.81 223.72Z" fill="url(#paint2_radial_1_4)"/>
<path d="M278.95 224.78C305.432 224.78 326.9 219.022 326.9 211.92C326.9 204.818 305.432 199.06 278.95 199.06C252.468 199.06 231 204.818 231 211.92C231 219.022 252.468 224.78 278.95 224.78Z" fill="url(#paint3_radial_1_4)"/>
<path d="M92.37 27.4C92.23 27.06 91.89 26.85 91.52 26.84L90.08 26.83C89.71 26.83 89.37 27.04 89.23 27.37L80.74 46.7C80.61 46.98 80.66 47.32 80.84 47.57C81.02 47.81 81.34 47.94 81.67 47.93L83.58 47.76C83.93 47.73 84.22 47.52 84.35 47.21L86.18 42.83H93.63L95.35 47.15C95.48 47.47 95.78 47.69 96.14 47.72L99.58 48C99.61 48 99.64 48.01 99.68 48.01C99.97 48.01 100.25 47.88 100.42 47.65C100.61 47.4 100.65 47.08 100.53 46.79L92.37 27.4ZM92.34 39.56H87.55L90 33.69L92.34 39.56Z" fill="white"/>
<path d="M265.84 28.6H267.71C268.63 28.6 269.14 29.16 269.14 29.86C269.14 30.37 268.89 30.77 268.5 30.98L269.27 32.83H268.33L267.74 31.18H266.69V32.83H265.84V28.6ZM267.68 30.45C267.99 30.45 268.26 30.26 268.26 29.88C268.26 29.54 268.03 29.33 267.64 29.33H266.69V30.45H267.68Z" fill="white"/>
<path d="M267.39 27.6C269.14 27.6 270.56 29.02 270.56 30.76C270.56 32.51 269.14 33.93 267.39 33.93C265.64 33.93 264.22 32.51 264.22 30.76C264.23 29.02 265.64 27.6 267.39 27.6ZM267.39 26.89C265.25 26.89 263.52 28.63 263.52 30.76C263.52 32.9 265.26 34.63 267.39 34.63C269.52 34.63 271.26 32.89 271.26 30.76C271.26 28.63 269.53 26.89 267.39 26.89Z" fill="white"/>
<path d="M172.73 35.03H169.34C168.86 35.03 168.47 35.41 168.47 35.87V38.72C168.47 39.18 168.86 39.56 169.34 39.56H172.73C173.21 39.56 173.6 39.18 173.6 38.72V35.87C173.6 35.4 173.21 35.03 172.73 35.03Z" fill="white"/>
<path d="M146.32 39.4799C146.32 44.3799 150.45 48.3399 155.54 48.3399C160.64 48.3399 164.86 44.3699 164.86 39.4799V37.5099V27.7199C164.86 27.2599 164.47 26.8799 163.99 26.8799H162.25C161.77 26.8799 161.38 27.2599 161.38 27.7199V39.7599V39.7699C161.38 42.4899 159.07 44.6899 156.24 44.6899C153.41 44.6899 151.21 42.4799 151.21 39.7699V39.1099V27.7399C151.21 27.2699 150.83 26.8899 150.36 26.8899H147.16C146.69 26.8899 146.31 27.2699 146.31 27.7399L146.32 39.4799Z" fill="white"/>
<path d="M237.94 26.89H230.4H227.24C226.76 26.89 226.37 27.27 226.37 27.73V46.96C226.37 47.19 226.46 47.39 226.63 47.55C226.79 47.71 227.01 47.8 227.25 47.8H230.41H237.95C238.43 47.8 238.82 47.42 238.82 46.96V45.25C238.82 44.8 238.41 44.44 237.95 44.44C237.49 44.44 236.82 44.76 234.8 44.76H234.41H231.28V38.21H237.37C237.85 38.21 238.24 37.83 238.24 37.37V35.86C238.24 35.4 237.85 35.02 237.37 35.02H231.28V29.93H234.41H234.8C236.82 29.93 237.49 30.25 237.95 30.25C238.41 30.25 238.82 29.88 238.82 29.44V27.73C238.81 27.27 238.42 26.89 237.94 26.89Z" fill="white"/>
<path d="M142.34 28.2C142.17 28.13 138.27 26.42 133.91 26.66C127.53 27.04 123.47 31.16 123.33 37.43C123.2 43.09 126.49 47.09 132.14 48.13C132.93 48.28 133.73 48.35 134.54 48.35C138.81 48.35 141.92 46.32 142.05 46.23C142.32 46.05 142.46 45.74 142.42 45.42L142.1 43.25C142.05 42.94 141.84 42.68 141.53 42.58C141.22 42.48 140.88 42.54 140.64 42.76C140.52 42.87 137.62 45.4 134.49 45.27C131.13 45.19 128.62 42.22 128.39 38.06C128.26 35.73 128.56 30.23 134.21 29.56C138.43 29.07 140.07 32 140.14 32.12C140.3 32.42 140.64 32.59 140.97 32.57C141.31 32.55 141.61 32.33 141.73 32.02L142.79 29.23C142.94 28.83 142.75 28.38 142.34 28.2Z" fill="white"/>
<path d="M219.4 26.89H216.24C215.76 26.89 215.37 27.27 215.37 27.73V35.03H206.57V27.73C206.57 27.27 206.18 26.89 205.7 26.89H202.54C202.06 26.89 201.67 27.27 201.67 27.73V46.96C201.67 47.42 202.06 47.8 202.54 47.8H205.7C206.18 47.8 206.57 47.42 206.57 46.96V38.21H215.37V46.96C215.37 47.42 215.76 47.8 216.24 47.8H219.4C219.88 47.8 220.27 47.42 220.27 46.96V27.73C220.28 27.27 219.89 26.89 219.4 26.89Z" fill="white"/>
<path d="M196.1 28.2C195.94 28.13 192.05 26.42 187.67 26.66C181.29 27.04 177.24 31.16 177.09 37.43C176.96 43.09 180.25 47.09 185.9 48.13C186.69 48.28 187.49 48.35 188.3 48.35C192.57 48.35 195.68 46.32 195.81 46.23C196.08 46.05 196.23 45.74 196.18 45.42L195.86 43.25C195.81 42.94 195.6 42.68 195.29 42.58C194.98 42.48 194.64 42.54 194.4 42.76C194.28 42.87 191.37 45.41 188.25 45.27C184.89 45.19 182.38 42.22 182.15 38.06C182.02 35.73 182.32 30.23 187.97 29.56C192.19 29.07 193.84 32 193.9 32.12C194.07 32.42 194.4 32.6 194.73 32.57C195.07 32.55 195.37 32.33 195.49 32.02L196.55 29.23C196.71 28.83 196.52 28.38 196.1 28.2Z" fill="white"/>
<path d="M251.79 36.26L260.08 28.26C260.3 28.04 260.37 27.72 260.25 27.44C260.13 27.16 259.84 26.98 259.53 26.98L256.94 27.2C256.72 27.22 256.53 27.28 256.38 27.43L249.1 34.55V27.65C249.1 27.24 248.75 26.9 248.32 26.9H245C244.57 26.9 244.22 27.24 244.22 27.65V47.05C244.22 47.47 244.57 47.8 245 47.8H248.32C248.75 47.8 249.1 47.46 249.1 47.05V40.06L254.68 47.03C254.81 47.19 255.01 47.28 255.22 47.28L259.74 47.63C260 47.63 260.24 47.49 260.35 47.26C260.46 47.03 260.43 46.76 260.27 46.57L251.79 36.26Z" fill="white"/>
<path d="M120.73 28.2C120.57 28.13 116.68 26.42 112.3 26.66C105.92 27.04 101.87 31.16 101.72 37.43C101.59 43.09 104.88 47.09 110.53 48.13C111.32 48.28 112.13 48.35 112.93 48.35C117.2 48.35 120.31 46.32 120.44 46.23C120.71 46.05 120.86 45.74 120.81 45.42L120.49 43.25C120.44 42.94 120.23 42.68 119.92 42.58C119.61 42.48 119.27 42.54 119.03 42.76C118.72 43.03 115.97 45.4 112.88 45.27C109.52 45.19 107.01 42.22 106.78 38.06C106.65 35.73 106.95 30.23 112.6 29.56C116.81 29.07 118.47 32 118.53 32.12C118.7 32.42 119.03 32.6 119.36 32.57C119.7 32.55 120 32.33 120.12 32.02L121.18 29.23C121.34 28.83 121.14 28.38 120.73 28.2Z" fill="white"/>
<defs>
<linearGradient id="paint0_linear_1_4" x1="309.142" y1="1.63159" x2="3.07069" y2="187.675" gradientUnits="userSpaceOnUse">
<stop stop-color="#34BFCB"/>
<stop offset="0.2383" stop-color="#4BBFAC"/>
<stop offset="0.7571" stop-color="#86C15D"/>
<stop offset="0.9186" stop-color="#99C143"/>
</linearGradient>
<radialGradient id="paint1_radial_1_4" cx="0" cy="0" r="1" gradientUnits="userSpaceOnUse" gradientTransform="translate(78.95 211.92) scale(47.9407 12.8625)">
<stop stop-color="#D3D4D6"/>
<stop offset="1" stop-color="white"/>
</radialGradient>
<radialGradient id="paint2_radial_1_4" cx="0" cy="0" r="1" gradientUnits="userSpaceOnUse" gradientTransform="translate(178.81 210.86) scale(47.9407 12.8625)">
<stop stop-color="#D3D4D6"/>
<stop offset="1" stop-color="white"/>
</radialGradient>
<radialGradient id="paint3_radial_1_4" cx="0" cy="0" r="1" gradientUnits="userSpaceOnUse" gradientTransform="translate(278.95 211.92) scale(47.9407 12.8625)">
<stop stop-color="#D3D4D6"/>
<stop offset="1" stop-color="white"/>
</radialGradient>
</defs>
</svg>
