<svg width="190" height="165" viewBox="0 0 190 165" fill="none" xmlns="http://www.w3.org/2000/svg">
<path d="M48.91 144.18C35.88 149.63 25.06 155.49 13.33 163.38C13.55 157.81 13.79 154.99 14.57 149.31C9.06001 147.75 6.21001 147.1 0.350006 146.1C12.89 136.68 26.83 129.15 41.59 123.85C44.53 131.97 45.99 136.04 48.91 144.18Z" fill="url(#paint0_linear_1_173)"/>
<path d="M140.7 144.18C153.73 149.63 164.55 155.49 176.28 163.38C176.06 157.81 175.82 154.99 175.04 149.31C180.55 147.75 183.4 147.1 189.26 146.1C176.72 136.68 162.78 129.15 148.01 123.85C145.09 131.97 143.63 136.04 140.7 144.18Z" fill="url(#paint1_linear_1_173)"/>
<path d="M41.12 124.87L47.14 141.63L47.9 143.74C35.77 148.86 25.29 154.49 14.21 161.83C14.42 157.23 14.68 154.5 15.38 149.42L15.47 148.73L14.8 148.54C9.86002 147.14 6.98001 146.46 2.35001 145.63C14.26 136.89 27.29 129.92 41.12 124.87ZM41.6 123.84C26.84 129.14 12.9 136.67 0.360016 146.09C6.22002 147.1 9.07002 147.75 14.58 149.3C13.8 154.98 13.56 157.8 13.34 163.37C25.07 155.49 35.89 149.63 48.92 144.17C45.99 136.04 44.53 131.97 41.6 123.84Z" fill="url(#paint2_linear_1_173)"/>
<path d="M148.5 124.87C162.32 129.92 175.36 136.89 187.28 145.63C182.64 146.46 179.77 147.14 174.83 148.54L174.16 148.73L174.25 149.42C174.94 154.5 175.21 157.23 175.42 161.83C164.33 154.48 153.85 148.86 141.73 143.74L145.33 133.74L148.5 124.87ZM148.01 123.84C145.09 131.97 143.62 136.04 140.7 144.18C153.73 149.63 164.55 155.49 176.28 163.38C176.06 157.81 175.82 154.99 175.04 149.31C180.55 147.75 183.4 147.1 189.26 146.1C176.71 136.67 162.78 129.14 148.01 123.84Z" fill="url(#paint3_linear_1_173)"/>
<path d="M48.94 144.24C39.28 142.19 34.12 141.59 23.42 141.53C19.27 133.95 17.19 130.15 13.04 122.57C24.93 121.98 30.7 122.3 41.62 123.9C44.55 132.03 46.01 136.1 48.94 144.24Z" fill="url(#paint4_linear_1_173)"/>
<path d="M140.68 144.24C150.34 142.19 155.49 141.59 166.19 141.53C170.34 133.95 172.42 130.15 176.57 122.57C164.67 121.98 158.91 122.3 147.98 123.9C145.07 132.03 143.61 136.1 140.68 144.24Z" fill="url(#paint5_linear_1_173)"/>
<path d="M163.31 125.74C163.28 130.31 159.66 135.07 155.27 136.32C150.87 137.57 145.98 142.1 144.39 146.39C142.8 150.67 137.77 153.91 133.21 153.58C128.65 153.25 122.5 155.83 119.54 159.32C116.58 162.8 110.75 164.13 106.58 162.26C102.41 160.39 95.74 160.71 91.77 162.98C87.8 165.24 81.86 164.49 78.58 161.31C75.3 158.13 68.93 156.15 64.42 156.92C59.91 157.69 54.59 154.95 52.6 150.84C50.6 146.73 45.29 142.69 40.8 141.87C36.3 141.05 32.24 136.66 31.78 132.11C31.31 127.56 27.7 121.96 23.76 119.65C19.81 117.34 17.5 111.83 18.61 107.39C19.72 102.96 18.25 96.45 15.33 92.93C12.41 89.41 12.13 83.44 14.69 79.66C17.25 75.87 18.09 69.26 16.56 64.95C15.02 60.65 16.79 54.93 20.5 52.26C24.2 49.58 27.26 43.65 27.28 39.08C27.31 34.51 30.93 29.75 35.32 28.5C39.72 27.25 44.61 22.72 46.2 18.44C47.79 14.16 52.82 10.92 57.38 11.25C61.94 11.58 68.09 8.99999 71.05 5.51999C74.01 2.03999 79.84 0.719994 84.01 2.57999C88.18 4.44999 94.84 4.12999 98.82 1.86999C102.79 -0.390009 108.73 0.359993 112.01 3.53999C115.29 6.71999 121.66 8.69999 126.17 7.92999C130.68 7.15999 136 9.89999 137.99 14.01C139.99 18.12 145.3 22.16 149.79 22.98C154.29 23.8 158.35 28.19 158.82 32.74C159.29 37.29 162.9 42.9 166.84 45.21C170.79 47.52 173.1 53.03 171.99 57.47C170.88 61.9 172.35 68.41 175.27 71.92C178.19 75.44 178.47 81.41 175.91 85.2C173.35 88.98 172.51 95.6 174.04 99.9C175.58 104.2 173.81 109.92 170.1 112.6C166.39 115.24 163.33 121.17 163.31 125.74Z" fill="url(#paint6_linear_1_173)"/>
<path d="M162.43 125.19C162.4 129.7 158.83 134.4 154.49 135.64C150.15 136.88 145.32 141.35 143.75 145.58C142.18 149.81 137.22 153.01 132.72 152.68C128.22 152.35 122.15 154.9 119.23 158.34C116.31 161.78 110.55 163.08 106.43 161.24C102.31 159.39 95.74 159.71 91.82 161.94C87.9 164.17 82.04 163.43 78.8 160.29C75.56 157.15 69.27 155.2 64.83 155.95C60.38 156.71 55.13 154 53.16 149.95C51.19 145.89 45.95 141.91 41.51 141.1C37.07 140.29 33.06 135.95 32.6 131.47C32.14 126.98 28.57 121.45 24.68 119.16C20.79 116.88 18.5 111.44 19.6 107.06C20.7 102.68 19.25 96.26 16.37 92.79C13.49 89.32 13.21 83.42 15.74 79.68C18.27 75.94 19.1 69.41 17.58 65.17C16.06 60.92 17.81 55.28 21.47 52.64C25.12 49.99 28.14 44.14 28.17 39.63C28.2 35.12 31.77 30.42 36.11 29.18C40.45 27.95 45.29 23.48 46.86 19.25C48.43 15.02 53.39 11.83 57.9 12.15C62.4 12.47 68.47 9.92999 71.39 6.48999C74.31 3.04999 80.07 1.74999 84.19 3.58999C88.31 5.42999 94.88 5.11999 98.8 2.87999C102.72 0.649987 108.58 1.38998 111.82 4.52998C115.06 7.66998 121.35 9.61999 125.8 8.85999C130.25 8.09999 135.5 10.81 137.47 14.86C139.44 18.92 144.68 22.91 149.12 23.72C153.56 24.53 157.57 28.87 158.03 33.35C158.49 37.84 162.06 43.37 165.95 45.65C169.84 47.93 172.13 53.37 171.03 57.75C169.93 62.13 171.38 68.55 174.26 72.02C177.14 75.49 177.42 81.39 174.89 85.13C172.36 88.87 171.53 95.4 173.05 99.65C174.57 103.9 172.82 109.54 169.16 112.18C165.47 114.82 162.46 120.67 162.43 125.19Z" fill="url(#paint7_linear_1_173)"/>
<path d="M164.17 82.4C164.17 120.44 133.33 151.28 95.29 151.28C57.25 151.28 26.41 120.44 26.41 82.4C26.41 44.36 57.25 13.52 95.29 13.52C133.33 13.52 164.17 44.36 164.17 82.4Z" fill="url(#paint8_linear_1_173)"/>
<path d="M162.81 82.4C162.81 119.69 132.59 149.91 95.3 149.91C58.01 149.91 27.79 119.69 27.79 82.4C27.79 45.11 58.01 14.89 95.3 14.89C132.58 14.89 162.81 45.11 162.81 82.4Z" fill="url(#paint9_linear_1_173)"/>
<path d="M95.29 142.29C128.366 142.29 155.18 115.476 155.18 82.4C155.18 49.3237 128.366 22.51 95.29 22.51C62.2137 22.51 35.4 49.3237 35.4 82.4C35.4 115.476 62.2137 142.29 95.29 142.29Z" fill="url(#paint10_linear_1_173)"/>
<path opacity="0.6" d="M50.79 133.14C51.41 131.83 52.04 130.52 52.69 129.23C70.14 87.83 103.35 54.2 144.46 36.17C132.15 23.08 114.68 14.89 95.29 14.89C58 14.89 27.78 45.11 27.78 82.4C27.78 102.63 36.69 120.77 50.79 133.14Z" fill="url(#paint11_radial_1_173)"/>
<path d="M166.19 141.53C118.25 118.47 71.36 118.47 23.42 141.53C19.27 133.95 17.19 130.15 13.04 122.57C67.3 95.96 122.32 95.96 176.58 122.57C172.43 130.15 170.35 133.95 166.19 141.53Z" fill="url(#paint12_linear_1_173)"/>
<path d="M94.82 103.41C121.69 103.41 148.82 109.97 175.47 122.92L166.6 139.11L165.86 140.47C142.12 129.16 118.22 123.43 94.82 123.43C71.42 123.43 47.51 129.16 23.77 140.47L18.99 131.74L14.16 122.92C40.8 109.98 67.94 103.41 94.82 103.41ZM94.81 102.61C67.49 102.61 40.17 109.27 13.04 122.57C17.19 130.15 19.27 133.95 23.42 141.53C47.4 130 71.1 124.23 94.81 124.24C118.52 124.24 142.23 130.01 166.19 141.53C170.34 133.95 172.42 130.15 176.57 122.57C149.45 109.26 122.13 102.61 94.81 102.61Z" fill="url(#paint13_linear_1_173)"/>
<path d="M42.56 85.49H38.78L35.24 68.29H38.65L40.78 80.21L43.32 68.61H46.63L49.17 80.21L51.28 68.29H54.71L51.15 85.49H47.37L44.97 74.04L42.56 85.49Z" fill="white"/>
<path d="M68.57 85.49H64.91L63.98 82.42H58.48L57.55 85.49H53.89L59.47 68.29H62.99L68.57 85.49ZM61.23 73.28L59.47 79.08H62.99L61.23 73.28Z" fill="white"/>
<path d="M70.1 85.49V68.29H76.49C77.29 68.29 78.02 68.47 78.67 68.82C79.32 69.17 79.84 69.7 80.22 70.39C80.6 71.09 80.79 71.93 80.79 72.91C80.79 73.88 80.56 74.7 80.11 75.37C79.66 76.04 79.07 76.53 78.35 76.84C79.54 77.07 80.22 78.13 80.4 80.03L80.98 85.48H77.69L77.15 79.95C77.09 79.43 76.96 79.04 76.76 78.8C76.55 78.55 76.23 78.43 75.79 78.43H73.41V85.48H70.1V85.49ZM75.97 75.09C76.43 75.09 76.79 74.94 77.08 74.64C77.36 74.34 77.5 73.91 77.5 73.35C77.5 72.81 77.36 72.39 77.08 72.08C76.8 71.78 76.43 71.63 75.97 71.63H73.41V75.09C73.41 75.09 75.97 75.09 75.97 75.09Z" fill="white"/>
<path d="M83.09 85.49V68.29H89.48C90.28 68.29 91.01 68.47 91.66 68.82C92.31 69.17 92.83 69.7 93.21 70.39C93.59 71.09 93.78 71.93 93.78 72.91C93.78 73.88 93.55 74.7 93.1 75.37C92.65 76.04 92.06 76.53 91.34 76.84C92.53 77.07 93.21 78.13 93.39 80.03L93.97 85.48H90.68L90.14 79.95C90.08 79.43 89.95 79.04 89.75 78.8C89.54 78.55 89.22 78.43 88.78 78.43H86.4V85.48H83.09V85.49ZM88.96 75.09C89.42 75.09 89.78 74.94 90.07 74.64C90.35 74.34 90.49 73.91 90.49 73.35C90.49 72.81 90.35 72.39 90.07 72.08C89.79 71.78 89.42 71.63 88.96 71.63H86.4V75.09C86.4 75.09 88.96 75.09 88.96 75.09Z" fill="white"/>
<path d="M109.85 85.49H106.19L105.26 82.42H99.76L98.83 85.49H95.17L100.75 68.29H104.27L109.85 85.49ZM102.51 73.28L100.75 79.08H104.27L102.51 73.28Z" fill="white"/>
<path d="M114.52 85.49H111.38V68.29H114.73L120.5 78.68V68.29H123.64V85.49H120.62L114.52 74.56V85.49Z" fill="white"/>
<path d="M136.56 68.29V71.88H132.57V85.49H129.28V71.88H125.29V68.29H136.56Z" fill="white"/>
<path d="M145.46 85.49H142.17V78.61L137.21 68.29H141.06L143.81 74.58L146.58 68.29H150.43L145.47 78.61V85.49H145.46Z" fill="white"/>
<path d="M43.17 128.05L39.7 117.42L44.14 115.97C45.06 115.67 45.89 115.67 46.65 115.98C47.41 116.29 47.92 116.89 48.21 117.78C48.4 118.38 48.4 118.94 48.2 119.45C48 119.96 47.67 120.41 47.22 120.77C47.67 120.71 48.06 120.8 48.38 121.04C48.7 121.28 48.99 121.66 49.24 122.18L50.87 125.53L48.81 126.2L47.22 122.86C47.04 122.49 46.85 122.26 46.63 122.15C46.41 122.05 46.13 122.05 45.78 122.17L43.75 122.83L45.23 127.37L43.17 128.05ZM45.26 120.43C45.68 120.29 45.98 120.07 46.16 119.76C46.34 119.45 46.36 119.08 46.22 118.66C46.08 118.24 45.85 117.97 45.53 117.82C45.2 117.67 44.83 117.67 44.4 117.81L42.32 118.49L43.18 121.12L45.26 120.43Z" fill="#231F20" stroke="#FAD797" stroke-width="1.0613" stroke-miterlimit="8"/>
<path d="M60.09 123.05L52.45 125.08L49.58 114.28L57.2 112.26L57.7 114.14L52.17 115.61L52.82 118.05L57.37 116.84L57.86 118.68L53.31 119.89L54.04 122.65L59.58 121.18L60.09 123.05Z" fill="#231F20" stroke="#FAD797" stroke-width="1.0613" stroke-miterlimit="8"/>
<path d="M63.37 121.83C62.48 121.52 61.72 120.99 61.11 120.24C60.5 119.49 60.09 118.57 59.87 117.48L59.81 117.2C59.59 116.12 59.62 115.11 59.9 114.18C60.18 113.25 60.67 112.47 61.37 111.84C62.07 111.21 62.92 110.79 63.94 110.59C64.95 110.39 65.88 110.43 66.71 110.71C67.55 110.99 68.27 111.49 68.88 112.21L67.47 113.65C67.04 113.18 66.58 112.85 66.08 112.64C65.58 112.44 65.02 112.4 64.39 112.52C63.76 112.65 63.24 112.91 62.83 113.31C62.42 113.71 62.14 114.21 61.99 114.81C61.84 115.41 61.84 116.05 61.98 116.73L62.05 117.07C62.19 117.76 62.44 118.35 62.8 118.84C63.16 119.33 63.61 119.68 64.15 119.9C64.69 120.12 65.27 120.16 65.9 120.03C66.84 119.84 67.54 119.33 68 118.49L67.75 117.24L65.19 117.75L64.84 116.01L69.49 115.08L70.25 118.88C69.44 120.57 68.1 121.61 66.24 121.98C65.22 122.19 64.27 122.14 63.37 121.83Z" fill="#231F20" stroke="#FAD797" stroke-width="1.0613" stroke-miterlimit="8"/>
<path d="M74.48 120.35L72.34 120.67L70.68 109.62L72.82 109.3L74.48 120.35Z" fill="#231F20" stroke="#FAD797" stroke-width="1.0613" stroke-miterlimit="8"/>
<path d="M77.48 119.36C76.69 118.92 76.11 118.29 75.74 117.48L77.44 116.32C78.11 117.49 79.01 118.02 80.14 117.9C80.76 117.84 81.23 117.66 81.57 117.36C81.91 117.06 82.05 116.7 82.01 116.26V116.24C81.96 115.79 81.72 115.46 81.28 115.25C80.84 115.03 80.18 114.87 79.28 114.76C78.16 114.63 77.29 114.32 76.66 113.82C76.03 113.32 75.67 112.64 75.58 111.77V111.75C75.52 111.15 75.63 110.6 75.92 110.1C76.21 109.6 76.63 109.2 77.19 108.88C77.75 108.57 78.38 108.37 79.09 108.3C80.06 108.2 80.89 108.31 81.56 108.62C82.24 108.93 82.81 109.45 83.28 110.16L81.69 111.4C81.42 110.97 81.07 110.65 80.65 110.44C80.23 110.23 79.78 110.15 79.31 110.2C78.8 110.25 78.39 110.4 78.08 110.65C77.77 110.9 77.63 111.19 77.66 111.53V111.55C77.7 111.93 77.91 112.22 78.31 112.41C78.7 112.6 79.37 112.76 80.32 112.87C81.43 113.02 82.31 113.33 82.98 113.81C83.65 114.28 84.03 114.98 84.12 115.9V115.93C84.19 116.62 84.08 117.24 83.78 117.8C83.48 118.36 83.04 118.82 82.44 119.17C81.84 119.52 81.14 119.74 80.35 119.82C79.23 119.97 78.28 119.81 77.48 119.36Z" fill="#231F20" stroke="#FAD797" stroke-width="1.0613" stroke-miterlimit="8"/>
<path d="M93.29 107.63L93.37 109.58L90.2 109.71L90.57 118.93L88.42 119.02L88.04 109.8L84.87 109.93L84.79 107.98L93.29 107.63Z" fill="#231F20" stroke="#FAD797" stroke-width="1.0613" stroke-miterlimit="8"/>
<path d="M95 118.8L95.27 107.62L99.94 107.74C100.91 107.76 101.69 108.05 102.3 108.59C102.91 109.13 103.2 109.87 103.18 110.81C103.16 111.44 102.97 111.96 102.61 112.39C102.25 112.81 101.79 113.12 101.24 113.31C101.68 113.41 102.02 113.62 102.24 113.95C102.46 114.28 102.61 114.73 102.67 115.31L103.08 119.01L100.91 118.96L100.53 115.28C100.49 114.87 100.38 114.59 100.21 114.42C100.04 114.25 99.77 114.16 99.4 114.15L97.27 114.1L97.15 118.87L95 118.8ZM99.51 112.31C99.96 112.32 100.31 112.21 100.59 111.98C100.86 111.75 101 111.41 101.01 110.96C101.02 110.52 100.9 110.18 100.64 109.94C100.38 109.69 100.03 109.56 99.58 109.55L97.4 109.5L97.33 112.26L99.51 112.31Z" fill="#231F20" stroke="#FAD797" stroke-width="1.0613" stroke-miterlimit="8"/>
<path d="M114.73 120.04L112.35 119.81L111.77 117.51L107.31 117.08L106.3 119.23L103.92 119L109.22 108.28L111.55 108.5L114.73 120.04ZM110.13 111.05L108.13 115.32L111.29 115.62L110.13 111.05Z" fill="#231F20" stroke="#FAD797" stroke-width="1.0613" stroke-miterlimit="8"/>
<path d="M123.68 110.17L123.39 112.1L120.25 111.62L118.85 120.74L116.72 120.41L118.12 111.29L114.98 110.81L115.27 108.88L123.68 110.17Z" fill="#231F20" stroke="#FAD797" stroke-width="1.0613" stroke-miterlimit="8"/>
<path d="M125.4 121.94L123.28 121.52L125.44 110.55L127.56 110.97L125.4 121.94Z" fill="#231F20" stroke="#FAD797" stroke-width="1.0613" stroke-miterlimit="8"/>
<path d="M129.64 122.32C128.96 121.65 128.5 120.84 128.26 119.89C128.02 118.94 128.04 117.94 128.3 116.89L128.37 116.61C128.63 115.56 129.09 114.67 129.74 113.94C130.39 113.21 131.18 112.72 132.09 112.45C133.01 112.18 133.98 112.17 135.02 112.43C136.05 112.69 136.91 113.15 137.59 113.82C138.27 114.49 138.72 115.3 138.96 116.24C139.19 117.19 139.18 118.19 138.92 119.24L138.85 119.52C138.59 120.57 138.13 121.46 137.48 122.19C136.83 122.92 136.05 123.41 135.13 123.69C134.21 123.97 133.24 123.97 132.21 123.71C131.18 123.45 130.32 122.99 129.64 122.32ZM134.47 121.75C135.01 121.56 135.48 121.23 135.86 120.76C136.24 120.29 136.52 119.71 136.69 119.02L136.78 118.68C136.95 118 136.98 117.36 136.86 116.76C136.74 116.16 136.49 115.65 136.1 115.23C135.71 114.81 135.19 114.52 134.55 114.36C133.91 114.2 133.31 114.21 132.76 114.4C132.21 114.59 131.74 114.92 131.36 115.39C130.98 115.87 130.7 116.44 130.53 117.13L130.45 117.47C130.28 118.15 130.25 118.79 130.37 119.39C130.48 119.99 130.74 120.5 131.14 120.92C131.54 121.34 132.06 121.63 132.7 121.8C133.34 121.95 133.93 121.94 134.47 121.75Z" fill="#231F20" stroke="#FAD797" stroke-width="1.0613" stroke-miterlimit="8"/>
<path d="M140.98 125.91L139.01 125.27L142.45 114.63L144.57 115.32L146.77 123.78L149.04 116.76L151.01 117.4L147.57 128.04L145.68 127.43L143.36 118.54L140.98 125.91Z" fill="#231F20" stroke="#FAD797" stroke-width="1.0613" stroke-miterlimit="8"/>
<path d="M43.17 128.05L39.7 117.42L44.14 115.97C45.06 115.67 45.89 115.67 46.65 115.98C47.41 116.29 47.92 116.89 48.21 117.78C48.4 118.38 48.4 118.94 48.2 119.45C48 119.96 47.67 120.41 47.22 120.77C47.67 120.71 48.06 120.8 48.38 121.04C48.7 121.28 48.99 121.66 49.24 122.18L50.87 125.53L48.81 126.2L47.22 122.86C47.04 122.49 46.85 122.26 46.63 122.15C46.41 122.05 46.13 122.05 45.78 122.17L43.75 122.83L45.23 127.37L43.17 128.05ZM45.26 120.43C45.68 120.29 45.98 120.07 46.16 119.76C46.34 119.45 46.36 119.08 46.22 118.66C46.08 118.24 45.85 117.97 45.53 117.82C45.2 117.67 44.83 117.67 44.4 117.81L42.32 118.49L43.18 121.12L45.26 120.43Z" fill="#231F20"/>
<path d="M60.09 123.05L52.45 125.08L49.58 114.28L57.2 112.26L57.7 114.14L52.17 115.61L52.82 118.05L57.37 116.84L57.86 118.68L53.31 119.89L54.04 122.65L59.58 121.18L60.09 123.05Z" fill="#231F20"/>
<path d="M63.37 121.83C62.48 121.52 61.72 120.99 61.11 120.24C60.5 119.49 60.09 118.57 59.87 117.48L59.81 117.2C59.59 116.12 59.62 115.11 59.9 114.18C60.18 113.25 60.67 112.47 61.37 111.84C62.07 111.21 62.92 110.79 63.94 110.59C64.95 110.39 65.88 110.43 66.71 110.71C67.55 110.99 68.27 111.49 68.88 112.21L67.47 113.65C67.04 113.18 66.58 112.85 66.08 112.64C65.58 112.44 65.02 112.4 64.39 112.52C63.76 112.65 63.24 112.91 62.83 113.31C62.42 113.71 62.14 114.21 61.99 114.81C61.84 115.41 61.84 116.05 61.98 116.73L62.05 117.07C62.19 117.76 62.44 118.35 62.8 118.84C63.16 119.33 63.61 119.68 64.15 119.9C64.69 120.12 65.27 120.16 65.9 120.03C66.84 119.84 67.54 119.33 68 118.49L67.75 117.24L65.19 117.75L64.84 116.01L69.49 115.08L70.25 118.88C69.44 120.57 68.1 121.61 66.24 121.98C65.22 122.19 64.27 122.14 63.37 121.83Z" fill="#231F20"/>
<path d="M74.48 120.35L72.34 120.67L70.68 109.62L72.82 109.3L74.48 120.35Z" fill="#231F20"/>
<path d="M77.48 119.36C76.69 118.92 76.11 118.29 75.74 117.48L77.44 116.32C78.11 117.49 79.01 118.02 80.14 117.9C80.76 117.84 81.23 117.66 81.57 117.36C81.91 117.06 82.05 116.7 82.01 116.26V116.24C81.96 115.79 81.72 115.46 81.28 115.25C80.84 115.03 80.18 114.87 79.28 114.76C78.16 114.63 77.29 114.32 76.66 113.82C76.03 113.32 75.67 112.64 75.58 111.77V111.75C75.52 111.15 75.63 110.6 75.92 110.1C76.21 109.6 76.63 109.2 77.19 108.88C77.75 108.57 78.38 108.37 79.09 108.3C80.06 108.2 80.89 108.31 81.56 108.62C82.24 108.93 82.81 109.45 83.28 110.16L81.69 111.4C81.42 110.97 81.07 110.65 80.65 110.44C80.23 110.23 79.78 110.15 79.31 110.2C78.8 110.25 78.39 110.4 78.08 110.65C77.77 110.9 77.63 111.19 77.66 111.53V111.55C77.7 111.93 77.91 112.22 78.31 112.41C78.7 112.6 79.37 112.76 80.32 112.87C81.43 113.02 82.31 113.33 82.98 113.81C83.65 114.28 84.03 114.98 84.12 115.9V115.93C84.19 116.62 84.08 117.24 83.78 117.8C83.48 118.36 83.04 118.82 82.44 119.17C81.84 119.52 81.14 119.74 80.35 119.82C79.23 119.97 78.28 119.81 77.48 119.36Z" fill="#231F20"/>
<path d="M93.29 107.63L93.37 109.58L90.2 109.71L90.57 118.93L88.42 119.02L88.04 109.8L84.87 109.93L84.79 107.98L93.29 107.63Z" fill="#231F20"/>
<path d="M95 118.8L95.27 107.62L99.94 107.74C100.91 107.76 101.69 108.05 102.3 108.59C102.91 109.13 103.2 109.87 103.18 110.81C103.16 111.44 102.97 111.96 102.61 112.39C102.25 112.81 101.79 113.12 101.24 113.31C101.68 113.41 102.02 113.62 102.24 113.95C102.46 114.28 102.61 114.73 102.67 115.31L103.08 119.01L100.91 118.96L100.53 115.28C100.49 114.87 100.38 114.59 100.21 114.42C100.04 114.25 99.77 114.16 99.4 114.15L97.27 114.1L97.15 118.87L95 118.8ZM99.51 112.31C99.96 112.32 100.31 112.21 100.59 111.98C100.86 111.75 101 111.41 101.01 110.96C101.02 110.52 100.9 110.18 100.64 109.94C100.38 109.69 100.03 109.56 99.58 109.55L97.4 109.5L97.33 112.26L99.51 112.31Z" fill="#231F20"/>
<path d="M114.73 120.04L112.35 119.81L111.77 117.51L107.31 117.08L106.3 119.23L103.92 119L109.22 108.28L111.55 108.5L114.73 120.04ZM110.13 111.05L108.13 115.32L111.29 115.62L110.13 111.05Z" fill="#231F20"/>
<path d="M123.68 110.17L123.39 112.1L120.25 111.62L118.85 120.74L116.72 120.41L118.12 111.29L114.98 110.81L115.27 108.88L123.68 110.17Z" fill="#231F20"/>
<path d="M125.4 121.94L123.28 121.52L125.44 110.55L127.56 110.97L125.4 121.94Z" fill="#231F20"/>
<path d="M129.64 122.32C128.96 121.65 128.5 120.84 128.26 119.89C128.02 118.94 128.04 117.94 128.3 116.89L128.37 116.61C128.63 115.56 129.09 114.67 129.74 113.94C130.39 113.21 131.18 112.72 132.09 112.45C133.01 112.18 133.98 112.17 135.02 112.43C136.05 112.69 136.91 113.15 137.59 113.82C138.27 114.49 138.72 115.3 138.96 116.24C139.19 117.19 139.18 118.19 138.92 119.24L138.85 119.52C138.59 120.57 138.13 121.46 137.48 122.19C136.83 122.92 136.05 123.41 135.13 123.69C134.21 123.97 133.24 123.97 132.21 123.71C131.18 123.45 130.32 122.99 129.64 122.32ZM134.47 121.75C135.01 121.56 135.48 121.23 135.86 120.76C136.24 120.29 136.52 119.71 136.69 119.02L136.78 118.68C136.95 118 136.98 117.36 136.86 116.76C136.74 116.16 136.49 115.65 136.1 115.23C135.71 114.81 135.19 114.52 134.55 114.36C133.91 114.2 133.31 114.21 132.76 114.4C132.21 114.59 131.74 114.92 131.36 115.39C130.98 115.87 130.7 116.44 130.53 117.13L130.45 117.47C130.28 118.15 130.25 118.79 130.37 119.39C130.48 119.99 130.74 120.5 131.14 120.92C131.54 121.34 132.06 121.63 132.7 121.8C133.34 121.95 133.93 121.94 134.47 121.75Z" fill="#231F20"/>
<path d="M140.98 125.91L139.01 125.27L142.45 114.63L144.57 115.32L146.77 123.78L149.04 116.76L151.01 117.4L147.57 128.04L145.68 127.43L143.36 118.54L140.98 125.91Z" fill="#231F20"/>
<defs>
<linearGradient id="paint0_linear_1_173" x1="10.8619" y1="151.744" x2="62.3385" y2="123.592" gradientUnits="userSpaceOnUse">
<stop stop-color="#B07515"/>
<stop offset="0.0943" stop-color="#E1BA60"/>
<stop offset="0.1398" stop-color="#F5D77F"/>
<stop offset="0.2581" stop-color="#FFFFD7"/>
<stop offset="0.3602" stop-color="#F5D77F"/>
<stop offset="0.4892" stop-color="#B07515"/>
<stop offset="0.5727" stop-color="#E1BA60"/>
<stop offset="0.6129" stop-color="#F5D77F"/>
<stop offset="0.7366" stop-color="#FFFFD7"/>
<stop offset="0.8387" stop-color="#F5D77F"/>
<stop offset="1" stop-color="#B07515"/>
</linearGradient>
<linearGradient id="paint1_linear_1_173" x1="182.289" y1="155.072" x2="130.988" y2="124.205" gradientUnits="userSpaceOnUse">
<stop stop-color="#B07515"/>
<stop offset="0.0943" stop-color="#E1BA60"/>
<stop offset="0.1398" stop-color="#F5D77F"/>
<stop offset="0.2581" stop-color="#FFFFD7"/>
<stop offset="0.3602" stop-color="#F5D77F"/>
<stop offset="0.4892" stop-color="#B07515"/>
<stop offset="0.5727" stop-color="#E1BA60"/>
<stop offset="0.6129" stop-color="#F5D77F"/>
<stop offset="0.7366" stop-color="#FFFFD7"/>
<stop offset="0.8387" stop-color="#F5D77F"/>
<stop offset="1" stop-color="#B07515"/>
</linearGradient>
<linearGradient id="paint2_linear_1_173" x1="0.360016" y1="143.605" x2="48.92" y2="143.605" gradientUnits="userSpaceOnUse">
<stop stop-color="#B07515"/>
<stop offset="0.0943" stop-color="#E1BA60"/>
<stop offset="0.1398" stop-color="#F5D77F"/>
<stop offset="0.2581" stop-color="#FFFFD7"/>
<stop offset="0.3602" stop-color="#F5D77F"/>
<stop offset="0.4892" stop-color="#B07515"/>
<stop offset="0.5727" stop-color="#E1BA60"/>
<stop offset="0.6129" stop-color="#F5D77F"/>
<stop offset="0.7366" stop-color="#FFFFD7"/>
<stop offset="0.8387" stop-color="#F5D77F"/>
<stop offset="1" stop-color="#B07515"/>
</linearGradient>
<linearGradient id="paint3_linear_1_173" x1="140.7" y1="143.61" x2="189.26" y2="143.61" gradientUnits="userSpaceOnUse">
<stop stop-color="#B07515"/>
<stop offset="0.0943" stop-color="#E1BA60"/>
<stop offset="0.1398" stop-color="#F5D77F"/>
<stop offset="0.2581" stop-color="#FFFFD7"/>
<stop offset="0.3602" stop-color="#F5D77F"/>
<stop offset="0.4892" stop-color="#B07515"/>
<stop offset="0.5727" stop-color="#E1BA60"/>
<stop offset="0.6129" stop-color="#F5D77F"/>
<stop offset="0.7366" stop-color="#FFFFD7"/>
<stop offset="0.8387" stop-color="#F5D77F"/>
<stop offset="1" stop-color="#B07515"/>
</linearGradient>
<linearGradient id="paint4_linear_1_173" x1="13.04" y1="133.267" x2="48.94" y2="133.267" gradientUnits="userSpaceOnUse">
<stop stop-color="#161A1F"/>
<stop offset="0.1398" stop-color="#2A323B"/>
<stop offset="0.2581" stop-color="#343F4A"/>
<stop offset="0.3602" stop-color="#2A323B"/>
<stop offset="0.4892" stop-color="#161A1F"/>
<stop offset="0.6129" stop-color="#2A323B"/>
<stop offset="0.7366" stop-color="#343F4A"/>
<stop offset="0.8387" stop-color="#2A323B"/>
<stop offset="1" stop-color="#161A1F"/>
</linearGradient>
<linearGradient id="paint5_linear_1_173" x1="140.68" y1="133.267" x2="176.57" y2="133.267" gradientUnits="userSpaceOnUse">
<stop stop-color="#161A1F"/>
<stop offset="0.1398" stop-color="#2A323B"/>
<stop offset="0.2581" stop-color="#343F4A"/>
<stop offset="0.3602" stop-color="#2A323B"/>
<stop offset="0.4892" stop-color="#161A1F"/>
<stop offset="0.6129" stop-color="#2A323B"/>
<stop offset="0.7366" stop-color="#343F4A"/>
<stop offset="0.8387" stop-color="#2A323B"/>
<stop offset="1" stop-color="#161A1F"/>
</linearGradient>
<linearGradient id="paint6_linear_1_173" x1="14.2996" y1="82.425" x2="175.185" y2="82.425" gradientUnits="userSpaceOnUse">
<stop stop-color="#B07515"/>
<stop offset="0.0943" stop-color="#E1BA60"/>
<stop offset="0.1398" stop-color="#F5D77F"/>
<stop offset="0.2581" stop-color="#FFFFD7"/>
<stop offset="0.3602" stop-color="#F5D77F"/>
<stop offset="0.4892" stop-color="#B07515"/>
<stop offset="0.5727" stop-color="#E1BA60"/>
<stop offset="0.6129" stop-color="#F5D77F"/>
<stop offset="0.7366" stop-color="#FFFFD7"/>
<stop offset="0.8387" stop-color="#F5D77F"/>
<stop offset="1" stop-color="#B07515"/>
</linearGradient>
<linearGradient id="paint7_linear_1_173" x1="37.4235" y1="24.5186" x2="151.38" y2="138.475" gradientUnits="userSpaceOnUse">
<stop stop-color="#B07515"/>
<stop offset="0.0943" stop-color="#E1BA60"/>
<stop offset="0.1398" stop-color="#F5D77F"/>
<stop offset="0.2581" stop-color="#FFFFD7"/>
<stop offset="0.3602" stop-color="#F5D77F"/>
<stop offset="0.4892" stop-color="#B07515"/>
<stop offset="0.5727" stop-color="#E1BA60"/>
<stop offset="0.6129" stop-color="#F5D77F"/>
<stop offset="0.7366" stop-color="#FFFFD7"/>
<stop offset="0.8387" stop-color="#F5D77F"/>
<stop offset="1" stop-color="#B07515"/>
</linearGradient>
<linearGradient id="paint8_linear_1_173" x1="30.3855" y1="82.4" x2="160.967" y2="82.4" gradientUnits="userSpaceOnUse">
<stop stop-color="#B07515"/>
<stop offset="0.0943" stop-color="#E1BA60"/>
<stop offset="0.1398" stop-color="#F5D77F"/>
<stop offset="0.2581" stop-color="#FFFFD7"/>
<stop offset="0.3602" stop-color="#F5D77F"/>
<stop offset="0.4892" stop-color="#B07515"/>
<stop offset="0.5727" stop-color="#E1BA60"/>
<stop offset="0.6129" stop-color="#F5D77F"/>
<stop offset="0.7366" stop-color="#FFFFD7"/>
<stop offset="0.8387" stop-color="#F5D77F"/>
<stop offset="1" stop-color="#B07515"/>
</linearGradient>
<linearGradient id="paint9_linear_1_173" x1="45.7263" y1="32.8281" x2="136.496" y2="123.598" gradientUnits="userSpaceOnUse">
<stop stop-color="#0F1115"/>
<stop offset="0.1398" stop-color="#1C2228"/>
<stop offset="0.2581" stop-color="#232A32"/>
<stop offset="0.3602" stop-color="#1C2228"/>
<stop offset="0.4892" stop-color="#0F1115"/>
<stop offset="0.6129" stop-color="#1C2228"/>
<stop offset="0.7366" stop-color="#232A32"/>
<stop offset="0.8387" stop-color="#1C2228"/>
<stop offset="1" stop-color="#0F1115"/>
</linearGradient>
<linearGradient id="paint10_linear_1_173" x1="51.3143" y1="38.4244" x2="131.844" y2="118.954" gradientUnits="userSpaceOnUse">
<stop stop-color="#161A1F"/>
<stop offset="0.1398" stop-color="#2A323B"/>
<stop offset="0.2581" stop-color="#343F4A"/>
<stop offset="0.3602" stop-color="#2A323B"/>
<stop offset="0.4892" stop-color="#161A1F"/>
<stop offset="0.6129" stop-color="#2A323B"/>
<stop offset="0.7366" stop-color="#343F4A"/>
<stop offset="0.8387" stop-color="#2A323B"/>
<stop offset="1" stop-color="#161A1F"/>
</linearGradient>
<radialGradient id="paint11_radial_1_173" cx="0" cy="0" r="1" gradientUnits="userSpaceOnUse" gradientTransform="translate(122.615 73.7537) scale(101.348 101.348)">
<stop stop-color="#E8E8E8"/>
<stop offset="0.0538" stop-color="#A6A6A6"/>
<stop offset="0.1398" stop-color="#606060"/>
<stop offset="0.2094" stop-color="#4C4C4C"/>
<stop offset="0.3264" stop-color="#303030"/>
<stop offset="0.4534" stop-color="#1B1B1B"/>
<stop offset="0.5936" stop-color="#0C0C0C"/>
<stop offset="0.7571" stop-color="#030303"/>
<stop offset="1"/>
</radialGradient>
<linearGradient id="paint12_linear_1_173" x1="13.04" y1="122.071" x2="176.58" y2="122.071" gradientUnits="userSpaceOnUse">
<stop stop-color="#B07515"/>
<stop offset="0.0943" stop-color="#E1BA60"/>
<stop offset="0.1398" stop-color="#F5D77F"/>
<stop offset="0.2581" stop-color="#FFFFD7"/>
<stop offset="0.3602" stop-color="#F5D77F"/>
<stop offset="0.4892" stop-color="#B07515"/>
<stop offset="0.5727" stop-color="#E1BA60"/>
<stop offset="0.6129" stop-color="#F5D77F"/>
<stop offset="0.7366" stop-color="#FFFFD7"/>
<stop offset="0.8387" stop-color="#F5D77F"/>
<stop offset="1" stop-color="#B07515"/>
</linearGradient>
<linearGradient id="paint13_linear_1_173" x1="35.372" y1="67.427" x2="175.918" y2="207.973" gradientUnits="userSpaceOnUse">
<stop stop-color="#B07515"/>
<stop offset="0.0943" stop-color="#E1BA60"/>
<stop offset="0.1398" stop-color="#F5D77F"/>
<stop offset="0.2581" stop-color="#FFFFD7"/>
<stop offset="0.3602" stop-color="#F5D77F"/>
<stop offset="0.4892" stop-color="#B07515"/>
<stop offset="0.5727" stop-color="#E1BA60"/>
<stop offset="0.6129" stop-color="#F5D77F"/>
<stop offset="0.7366" stop-color="#FFFFD7"/>
<stop offset="0.8387" stop-color="#F5D77F"/>
<stop offset="1" stop-color="#B07515"/>
</linearGradient>
</defs>
</svg>
